<mxfile host="app.diagrams.net" modified="2023-04-13T09:50:23.982Z" agent="Mozilla/5.0 (Windows NT 10.0; Win64; x64) AppleWebKit/537.36 (KHTML, like Gecko) Chrome/111.0.0.0 Safari/537.36" etag="Bl1Ozo_B9JlKIsqK0R4c" version="21.1.5" type="device">
  <diagram name="PÃ¡gina-1" id="Mkg4Lt6HMzeUG3AIkbqN">
    <mxGraphModel dx="1354" dy="1852" grid="1" gridSize="10" guides="1" tooltips="1" connect="1" arrows="1" fold="1" page="1" pageScale="1" pageWidth="827" pageHeight="1169" math="0" shadow="0">
      <root>
        <mxCell id="0" />
        <mxCell id="1" parent="0" />
        <mxCell id="GY51BewOlJHL9mJa0Oc7-27" value="(0,N)" style="edgeStyle=orthogonalEdgeStyle;rounded=0;orthogonalLoop=1;jettySize=auto;html=1;entryX=0;entryY=0.5;entryDx=0;entryDy=0;endArrow=none;endFill=0;fontSize=19;" edge="1" parent="1" source="GY51BewOlJHL9mJa0Oc7-1" target="GY51BewOlJHL9mJa0Oc7-20">
          <mxGeometry relative="1" as="geometry">
            <Array as="points">
              <mxPoint x="160" y="65" />
            </Array>
          </mxGeometry>
        </mxCell>
        <mxCell id="GY51BewOlJHL9mJa0Oc7-1" value="anotacao" style="swimlane;fontStyle=0;childLayout=stackLayout;horizontal=1;startSize=30;horizontalStack=0;resizeParent=1;resizeParentMax=0;resizeLast=0;collapsible=1;marginBottom=0;whiteSpace=wrap;html=1;" vertex="1" parent="1">
          <mxGeometry x="90" y="110" width="140" height="180" as="geometry" />
        </mxCell>
        <mxCell id="GY51BewOlJHL9mJa0Oc7-2" value="titulo" style="text;strokeColor=none;fillColor=none;align=left;verticalAlign=middle;spacingLeft=4;spacingRight=4;overflow=hidden;points=[[0,0.5],[1,0.5]];portConstraint=eastwest;rotatable=0;whiteSpace=wrap;html=1;" vertex="1" parent="GY51BewOlJHL9mJa0Oc7-1">
          <mxGeometry y="30" width="140" height="30" as="geometry" />
        </mxCell>
        <mxCell id="GY51BewOlJHL9mJa0Oc7-3" value="texto formatado" style="text;strokeColor=none;fillColor=none;align=left;verticalAlign=middle;spacingLeft=4;spacingRight=4;overflow=hidden;points=[[0,0.5],[1,0.5]];portConstraint=eastwest;rotatable=0;whiteSpace=wrap;html=1;" vertex="1" parent="GY51BewOlJHL9mJa0Oc7-1">
          <mxGeometry y="60" width="140" height="30" as="geometry" />
        </mxCell>
        <mxCell id="GY51BewOlJHL9mJa0Oc7-4" value="data criacao" style="text;strokeColor=none;fillColor=none;align=left;verticalAlign=middle;spacingLeft=4;spacingRight=4;overflow=hidden;points=[[0,0.5],[1,0.5]];portConstraint=eastwest;rotatable=0;whiteSpace=wrap;html=1;" vertex="1" parent="GY51BewOlJHL9mJa0Oc7-1">
          <mxGeometry y="90" width="140" height="30" as="geometry" />
        </mxCell>
        <mxCell id="GY51BewOlJHL9mJa0Oc7-5" value="data alteracao" style="text;strokeColor=none;fillColor=none;align=left;verticalAlign=middle;spacingLeft=4;spacingRight=4;overflow=hidden;points=[[0,0.5],[1,0.5]];portConstraint=eastwest;rotatable=0;whiteSpace=wrap;html=1;" vertex="1" parent="GY51BewOlJHL9mJa0Oc7-1">
          <mxGeometry y="120" width="140" height="30" as="geometry" />
        </mxCell>
        <mxCell id="GY51BewOlJHL9mJa0Oc7-21" value="&lt;u&gt;id&lt;/u&gt;" style="text;strokeColor=none;fillColor=none;align=left;verticalAlign=middle;spacingLeft=4;spacingRight=4;overflow=hidden;points=[[0,0.5],[1,0.5]];portConstraint=eastwest;rotatable=0;whiteSpace=wrap;html=1;" vertex="1" parent="GY51BewOlJHL9mJa0Oc7-1">
          <mxGeometry y="150" width="140" height="30" as="geometry" />
        </mxCell>
        <mxCell id="GY51BewOlJHL9mJa0Oc7-6" value="rotulos" style="swimlane;fontStyle=0;childLayout=stackLayout;horizontal=1;startSize=30;horizontalStack=0;resizeParent=1;resizeParentMax=0;resizeLast=0;collapsible=1;marginBottom=0;whiteSpace=wrap;html=1;" vertex="1" parent="1">
          <mxGeometry x="420" y="-10" width="140" height="120" as="geometry" />
        </mxCell>
        <mxCell id="GY51BewOlJHL9mJa0Oc7-7" value="nome" style="text;strokeColor=none;fillColor=none;align=left;verticalAlign=middle;spacingLeft=4;spacingRight=4;overflow=hidden;points=[[0,0.5],[1,0.5]];portConstraint=eastwest;rotatable=0;whiteSpace=wrap;html=1;" vertex="1" parent="GY51BewOlJHL9mJa0Oc7-6">
          <mxGeometry y="30" width="140" height="30" as="geometry" />
        </mxCell>
        <mxCell id="GY51BewOlJHL9mJa0Oc7-8" value="cor" style="text;strokeColor=none;fillColor=none;align=left;verticalAlign=middle;spacingLeft=4;spacingRight=4;overflow=hidden;points=[[0,0.5],[1,0.5]];portConstraint=eastwest;rotatable=0;whiteSpace=wrap;html=1;" vertex="1" parent="GY51BewOlJHL9mJa0Oc7-6">
          <mxGeometry y="60" width="140" height="30" as="geometry" />
        </mxCell>
        <mxCell id="GY51BewOlJHL9mJa0Oc7-25" value="&lt;u&gt;id&lt;/u&gt;" style="text;strokeColor=none;fillColor=none;align=left;verticalAlign=middle;spacingLeft=4;spacingRight=4;overflow=hidden;points=[[0,0.5],[1,0.5]];portConstraint=eastwest;rotatable=0;whiteSpace=wrap;html=1;" vertex="1" parent="GY51BewOlJHL9mJa0Oc7-6">
          <mxGeometry y="90" width="140" height="30" as="geometry" />
        </mxCell>
        <mxCell id="GY51BewOlJHL9mJa0Oc7-10" value="lembrete" style="swimlane;fontStyle=0;childLayout=stackLayout;horizontal=1;startSize=30;horizontalStack=0;resizeParent=1;resizeParentMax=0;resizeLast=0;collapsible=1;marginBottom=0;whiteSpace=wrap;html=1;" vertex="1" parent="1">
          <mxGeometry x="273" y="370" width="140" height="210" as="geometry" />
        </mxCell>
        <mxCell id="GY51BewOlJHL9mJa0Oc7-11" value="data" style="text;strokeColor=none;fillColor=none;align=left;verticalAlign=middle;spacingLeft=4;spacingRight=4;overflow=hidden;points=[[0,0.5],[1,0.5]];portConstraint=eastwest;rotatable=0;whiteSpace=wrap;html=1;" vertex="1" parent="GY51BewOlJHL9mJa0Oc7-10">
          <mxGeometry y="30" width="140" height="30" as="geometry" />
        </mxCell>
        <mxCell id="GY51BewOlJHL9mJa0Oc7-12" value="hora" style="text;strokeColor=none;fillColor=none;align=left;verticalAlign=middle;spacingLeft=4;spacingRight=4;overflow=hidden;points=[[0,0.5],[1,0.5]];portConstraint=eastwest;rotatable=0;whiteSpace=wrap;html=1;" vertex="1" parent="GY51BewOlJHL9mJa0Oc7-10">
          <mxGeometry y="60" width="140" height="30" as="geometry" />
        </mxCell>
        <mxCell id="GY51BewOlJHL9mJa0Oc7-13" value="sinal visual opcional" style="text;strokeColor=none;fillColor=none;align=left;verticalAlign=middle;spacingLeft=4;spacingRight=4;overflow=hidden;points=[[0,0.5],[1,0.5]];portConstraint=eastwest;rotatable=0;whiteSpace=wrap;html=1;" vertex="1" parent="GY51BewOlJHL9mJa0Oc7-10">
          <mxGeometry y="90" width="140" height="30" as="geometry" />
        </mxCell>
        <mxCell id="GY51BewOlJHL9mJa0Oc7-14" value="sinal sonoro opcional" style="text;strokeColor=none;fillColor=none;align=left;verticalAlign=middle;spacingLeft=4;spacingRight=4;overflow=hidden;points=[[0,0.5],[1,0.5]];portConstraint=eastwest;rotatable=0;whiteSpace=wrap;html=1;" vertex="1" parent="GY51BewOlJHL9mJa0Oc7-10">
          <mxGeometry y="120" width="140" height="30" as="geometry" />
        </mxCell>
        <mxCell id="GY51BewOlJHL9mJa0Oc7-15" value="antecedencia" style="text;strokeColor=none;fillColor=none;align=left;verticalAlign=middle;spacingLeft=4;spacingRight=4;overflow=hidden;points=[[0,0.5],[1,0.5]];portConstraint=eastwest;rotatable=0;whiteSpace=wrap;html=1;" vertex="1" parent="GY51BewOlJHL9mJa0Oc7-10">
          <mxGeometry y="150" width="140" height="30" as="geometry" />
        </mxCell>
        <mxCell id="GY51BewOlJHL9mJa0Oc7-26" value="&lt;u&gt;id&lt;/u&gt;" style="text;strokeColor=none;fillColor=none;align=left;verticalAlign=middle;spacingLeft=4;spacingRight=4;overflow=hidden;points=[[0,0.5],[1,0.5]];portConstraint=eastwest;rotatable=0;whiteSpace=wrap;html=1;" vertex="1" parent="GY51BewOlJHL9mJa0Oc7-10">
          <mxGeometry y="180" width="140" height="30" as="geometry" />
        </mxCell>
        <mxCell id="GY51BewOlJHL9mJa0Oc7-33" value="(1,1)" style="edgeStyle=orthogonalEdgeStyle;rounded=0;orthogonalLoop=1;jettySize=auto;html=1;endArrow=none;endFill=0;fontSize=19;" edge="1" parent="1" source="GY51BewOlJHL9mJa0Oc7-16" target="GY51BewOlJHL9mJa0Oc7-32">
          <mxGeometry relative="1" as="geometry" />
        </mxCell>
        <mxCell id="GY51BewOlJHL9mJa0Oc7-16" value="usuario" style="swimlane;fontStyle=0;childLayout=stackLayout;horizontal=1;startSize=30;horizontalStack=0;resizeParent=1;resizeParentMax=0;resizeLast=0;collapsible=1;marginBottom=0;whiteSpace=wrap;html=1;" vertex="1" parent="1">
          <mxGeometry x="670" y="200" width="140" height="90" as="geometry" />
        </mxCell>
        <mxCell id="GY51BewOlJHL9mJa0Oc7-17" value="login" style="text;strokeColor=none;fillColor=none;align=left;verticalAlign=middle;spacingLeft=4;spacingRight=4;overflow=hidden;points=[[0,0.5],[1,0.5]];portConstraint=eastwest;rotatable=0;whiteSpace=wrap;html=1;fontStyle=4" vertex="1" parent="GY51BewOlJHL9mJa0Oc7-16">
          <mxGeometry y="30" width="140" height="30" as="geometry" />
        </mxCell>
        <mxCell id="GY51BewOlJHL9mJa0Oc7-18" value="senha" style="text;strokeColor=none;fillColor=none;align=left;verticalAlign=middle;spacingLeft=4;spacingRight=4;overflow=hidden;points=[[0,0.5],[1,0.5]];portConstraint=eastwest;rotatable=0;whiteSpace=wrap;html=1;" vertex="1" parent="GY51BewOlJHL9mJa0Oc7-16">
          <mxGeometry y="60" width="140" height="30" as="geometry" />
        </mxCell>
        <mxCell id="GY51BewOlJHL9mJa0Oc7-28" value="(0, N)" style="edgeStyle=orthogonalEdgeStyle;rounded=0;orthogonalLoop=1;jettySize=auto;html=1;entryX=0;entryY=0.5;entryDx=0;entryDy=0;endArrow=none;endFill=0;fontSize=19;" edge="1" parent="1" source="GY51BewOlJHL9mJa0Oc7-20" target="GY51BewOlJHL9mJa0Oc7-8">
          <mxGeometry relative="1" as="geometry" />
        </mxCell>
        <mxCell id="GY51BewOlJHL9mJa0Oc7-20" value="possui" style="rhombus;whiteSpace=wrap;html=1;" vertex="1" parent="1">
          <mxGeometry x="240" y="25" width="80" height="80" as="geometry" />
        </mxCell>
        <mxCell id="GY51BewOlJHL9mJa0Oc7-30" value="(1,1)" style="edgeStyle=orthogonalEdgeStyle;rounded=0;orthogonalLoop=1;jettySize=auto;html=1;entryX=0.455;entryY=1.033;entryDx=0;entryDy=0;entryPerimeter=0;endArrow=none;endFill=0;fontSize=19;" edge="1" parent="1" source="GY51BewOlJHL9mJa0Oc7-29" target="GY51BewOlJHL9mJa0Oc7-21">
          <mxGeometry relative="1" as="geometry">
            <Array as="points">
              <mxPoint x="154" y="370" />
              <mxPoint x="154" y="370" />
            </Array>
          </mxGeometry>
        </mxCell>
        <mxCell id="GY51BewOlJHL9mJa0Oc7-31" value="(0,1)" style="edgeStyle=orthogonalEdgeStyle;rounded=0;orthogonalLoop=1;jettySize=auto;html=1;entryX=0;entryY=0.5;entryDx=0;entryDy=0;endArrow=none;endFill=0;fontSize=19;" edge="1" parent="1" source="GY51BewOlJHL9mJa0Oc7-29" target="GY51BewOlJHL9mJa0Oc7-13">
          <mxGeometry relative="1" as="geometry" />
        </mxCell>
        <mxCell id="GY51BewOlJHL9mJa0Oc7-29" value="vinculada" style="rhombus;whiteSpace=wrap;html=1;" vertex="1" parent="1">
          <mxGeometry x="110" y="360" width="90" height="80" as="geometry" />
        </mxCell>
        <mxCell id="GY51BewOlJHL9mJa0Oc7-36" value="(0,N)" style="edgeStyle=orthogonalEdgeStyle;rounded=0;orthogonalLoop=1;jettySize=auto;html=1;entryX=1;entryY=0.5;entryDx=0;entryDy=0;endArrow=none;endFill=0;fontSize=19;" edge="1" parent="1" source="GY51BewOlJHL9mJa0Oc7-32" target="GY51BewOlJHL9mJa0Oc7-8">
          <mxGeometry relative="1" as="geometry" />
        </mxCell>
        <mxCell id="GY51BewOlJHL9mJa0Oc7-32" value="cria" style="rhombus;whiteSpace=wrap;html=1;" vertex="1" parent="1">
          <mxGeometry x="700" y="25" width="80" height="80" as="geometry" />
        </mxCell>
        <mxCell id="GY51BewOlJHL9mJa0Oc7-37" value="(1,1)" style="edgeStyle=orthogonalEdgeStyle;rounded=0;orthogonalLoop=1;jettySize=auto;html=1;entryX=0;entryY=0.5;entryDx=0;entryDy=0;endArrow=none;endFill=0;fontSize=19;" edge="1" parent="1" source="GY51BewOlJHL9mJa0Oc7-34" target="GY51BewOlJHL9mJa0Oc7-17">
          <mxGeometry relative="1" as="geometry" />
        </mxCell>
        <mxCell id="GY51BewOlJHL9mJa0Oc7-38" value="(0,N)" style="edgeStyle=orthogonalEdgeStyle;rounded=0;orthogonalLoop=1;jettySize=auto;html=1;entryX=1;entryY=0.5;entryDx=0;entryDy=0;endArrow=none;endFill=0;fontSize=19;" edge="1" parent="1" source="GY51BewOlJHL9mJa0Oc7-34" target="GY51BewOlJHL9mJa0Oc7-3">
          <mxGeometry relative="1" as="geometry" />
        </mxCell>
        <mxCell id="GY51BewOlJHL9mJa0Oc7-34" value="cria" style="rhombus;whiteSpace=wrap;html=1;" vertex="1" parent="1">
          <mxGeometry x="440" y="205" width="80" height="80" as="geometry" />
        </mxCell>
        <mxCell id="GY51BewOlJHL9mJa0Oc7-39" value="(1,1)" style="edgeStyle=orthogonalEdgeStyle;rounded=0;orthogonalLoop=1;jettySize=auto;html=1;endArrow=none;endFill=0;fontSize=19;" edge="1" parent="1" source="GY51BewOlJHL9mJa0Oc7-35" target="GY51BewOlJHL9mJa0Oc7-16">
          <mxGeometry relative="1" as="geometry" />
        </mxCell>
        <mxCell id="GY51BewOlJHL9mJa0Oc7-40" value="(0,N)" style="edgeStyle=orthogonalEdgeStyle;rounded=0;orthogonalLoop=1;jettySize=auto;html=1;entryX=1;entryY=0.5;entryDx=0;entryDy=0;endArrow=none;endFill=0;fontSize=19;" edge="1" parent="1" source="GY51BewOlJHL9mJa0Oc7-35" target="GY51BewOlJHL9mJa0Oc7-13">
          <mxGeometry relative="1" as="geometry" />
        </mxCell>
        <mxCell id="GY51BewOlJHL9mJa0Oc7-35" value="cria" style="rhombus;whiteSpace=wrap;html=1;" vertex="1" parent="1">
          <mxGeometry x="530" y="370" width="80" height="80" as="geometry" />
        </mxCell>
      </root>
    </mxGraphModel>
  </diagram>
</mxfile>
